<?xml version="1.0" encoding="UTF-8" standalone="no"?>
<!DOCTYPE svg PUBLIC "-//W3C//DTD SVG 1.1//EN" "http://www.w3.org/Graphics/SVG/1.1/DTD/svg11.dtd">
<svg version="1.1" xmlns="http://www.w3.org/2000/svg" xmlns:xlink="http://www.w3.org/1999/xlink" preserveAspectRatio="xMidYMid meet" viewBox="0 0 640 640" width="640" height="640"><defs><path d="M624.44 472.5L624.44 300.92C624.44 197.96 624.44 140.77 624.44 129.33C624.44 113.63 612.99 100.75 598.94 100.75C547.96 100.75 140.19 100.75 89.22 100.75C75.19 100.75 63.68 113.56 63.68 129.33C63.68 140.77 63.68 197.96 63.68 300.92L63.68 472.5L63.68 501.09C25.47 552.56 4.25 581.16 0 586.88C0 610.51 17.11 629.75 38.2 629.75C99.38 629.75 588.75 629.75 649.93 629.75C671.02 629.75 688.13 610.51 688.13 586.88C683.88 581.16 662.66 552.56 624.44 501.09L624.44 472.5ZM293.14 615.5C289.62 615.5 286.73 612.33 286.73 608.35C286.73 604.37 289.62 601.19 293.14 601.19C303.33 601.19 384.86 601.19 395.05 601.19C398.57 601.19 401.46 604.37 401.46 608.35C401.4 612.33 398.57 615.5 395.05 615.5C374.67 615.5 303.33 615.5 293.14 615.5ZM258.45 560.72L429.68 560.72L449.13 586.91L239 586.91L258.45 560.72ZM566.33 475.48C521.88 475.48 166.25 475.48 121.79 475.48C109.59 475.48 99.58 464.21 99.58 450.52C99.58 420.6 99.58 181.29 99.58 151.38C99.58 137.59 109.59 126.41 121.79 126.41C166.25 126.41 521.88 126.41 566.33 126.41C578.54 126.41 588.55 137.65 588.55 151.38C588.55 151.38 588.55 450.52 588.55 450.52C588.55 464.31 578.54 475.48 566.33 475.48Z" id="j1xyntPFCd"></path><path d="M493.19 273.2L471.61 248.92C454.07 262.02 444.32 269.29 442.37 270.74C439.26 268.96 435.82 267.86 432.54 266.57C432.07 263.97 429.75 250.96 425.58 227.56L394.96 227.56C390.79 250.96 388.47 263.97 388.01 266.57C384.69 267.89 381.32 268.96 378.17 270.74C376.22 269.29 366.48 262.02 348.94 248.92L327.33 273.14C339 292.83 345.48 303.78 346.78 305.97C345.16 309.5 343.83 313.25 342.71 317.07C340.41 317.59 328.94 320.17 308.29 324.81L308.29 359.16C328.96 363.78 340.44 366.35 342.74 366.87C343.86 370.72 345.19 374.38 346.81 378C345.51 380.19 339.02 391.1 327.33 410.73L348.97 435.02C366.51 421.88 376.25 414.59 378.2 413.13C381.29 414.97 384.72 416.04 388.04 417.3C388.5 419.91 390.82 432.94 394.99 456.38L425.61 456.38C429.78 432.94 432.1 419.91 432.56 417.3C435.85 416.04 439.22 414.97 442.4 413.13C444.35 414.59 454.08 421.88 471.6 435.02L493.24 410.73C481.55 391.1 475.06 380.19 473.76 378C475.41 374.44 476.71 370.72 477.83 366.87C480.13 366.35 491.6 363.78 512.25 359.16L512.31 324.81C491.62 320.17 480.13 317.59 477.83 317.07C476.68 313.25 475.38 309.53 473.74 305.97C476.33 301.6 482.82 290.68 493.19 273.2ZM374.62 341.97C374.62 319.89 390.61 301.99 410.29 301.99C429.97 301.99 446.01 319.92 446.01 341.97C446.01 364.08 430.02 382.05 410.29 382.05C390.55 382.05 374.62 364.11 374.62 341.97Z" id="b18c4B0RB"></path><path d="M297.72 256.21C299.2 255.39 306.59 251.3 319.88 243.94L314.37 220.66C299.59 221.75 291.38 222.35 289.73 222.47C288.35 220.05 286.79 217.75 285.17 215.68C285.7 213.93 288.32 205.2 293.05 189.49L274.41 177.41C264.66 189.9 259.25 196.84 258.16 198.22C255.77 197.68 253.25 197.58 250.77 197.42C250.03 195.75 246.34 187.39 239.69 172.36L218.92 178.57C219.89 195.33 220.42 204.65 220.53 206.51C218.54 208.09 216.35 209.55 214.53 211.3C212.97 210.71 205.17 207.76 191.12 202.46L180.39 223.38C191.5 234.33 197.68 240.42 198.91 241.64C198.39 244.36 198.16 247.14 198.05 249.99C196.57 250.8 189.16 254.89 175.83 262.26L181.37 285.63C196.15 284.54 204.36 283.94 206.01 283.82C207.39 286.21 208.92 288.48 210.54 290.52C210.01 292.27 207.4 301.02 202.69 316.78L221.33 328.82C231.08 316.35 236.49 309.43 237.58 308.04C239.95 308.59 242.51 308.65 244.97 308.79C245.7 310.46 249.4 318.82 256.05 333.88L276.79 327.69C275.84 310.93 275.31 301.62 275.21 299.76C277.17 298.17 279.33 296.75 281.21 294.96C282.77 295.55 290.56 298.47 304.59 303.74L315.35 282.85L296.83 264.62C297.33 260.95 297.62 258.15 297.72 256.21ZM223.71 260.41C220.13 245.39 228.04 229.99 241.42 225.93C254.84 221.96 268.55 230.85 272.16 245.85C275.74 260.84 267.77 276.28 254.41 280.33C240.99 284.34 227.29 275.44 223.71 260.41Z" id="h23BrMny7S"></path></defs><g><g><g><use xlink:href="#j1xyntPFCd" opacity="1" fill="#010002" fill-opacity="1"></use><g><use xlink:href="#j1xyntPFCd" opacity="1" fill-opacity="0" stroke="#000000" stroke-width="1" stroke-opacity="0"></use></g></g><g><use xlink:href="#b18c4B0RB" opacity="1" fill="#010002" fill-opacity="1"></use><g><use xlink:href="#b18c4B0RB" opacity="1" fill-opacity="0" stroke="#000000" stroke-width="1" stroke-opacity="0"></use></g></g><g><use xlink:href="#h23BrMny7S" opacity="1" fill="#010002" fill-opacity="1"></use><g><use xlink:href="#h23BrMny7S" opacity="1" fill-opacity="0" stroke="#000000" stroke-width="1" stroke-opacity="0"></use></g></g></g></g></svg>